<svg viewBox="0 0 24 24" xmlns="http://www.w3.org/2000/svg">
  <path d="M6.763 10.036a4.652 4.652 0 0 0 .084.793c.058.26.137.533.238.82a.55.55 0 0 1 .079.28c0 .116-.068.232-.21.348l-.693.462a.528.528 0 0 1-.29.1c-.116 0-.232-.058-.348-.168a3.61 3.61 0 0 1-.416-.541 8.91 8.91 0 0 1-.358-.684c-.9 1.063-2.032 1.594-3.394 1.594-.97 0-1.745-.277-2.316-.832-.572-.554-.858-1.293-.858-2.215 0-.98.345-1.775 1.042-2.384.697-.61 1.624-.914 2.789-.914.387 0 .786.033 1.2.09.414.058.842.152 1.293.269v-.844c0-.878-.184-1.493-.541-1.852-.364-.358-1-.534-1.91-.534-.41 0-.832.048-1.267.152a9.36 9.36 0 0 0-1.267.39 3.37 3.37 0 0 1-.41.152.673.673 0 0 1-.168.032c-.148 0-.221-.107-.221-.327v-.541c0-.168.02-.296.068-.374a.724.724 0 0 1 .284-.222 5.82 5.82 0 0 1 1.395-.499 6.598 6.598 0 0 1 1.716-.226c1.31 0 2.268.297 2.878.893.603.596.907 1.5.907 2.72v3.584h.003zM3.26 11.498c.374 0 .762-.068 1.168-.206a2.528 2.528 0 0 0 1.074-.729c.168-.2.29-.422.354-.673.064-.252.1-.554.1-.907v-.437a9.333 9.333 0 0 0-1.032-.2 8.436 8.436 0 0 0-1.055-.065c-.762 0-1.32.148-1.688.452-.368.303-.548.738-.548 1.314 0 .541.136.947.416 1.225.272.284.673.426 1.211.426zm8.147 1.108a.672.672 0 0 1-.432-.116c-.09-.065-.168-.2-.232-.39L8.245 4.793a1.805 1.805 0 0 1-.1-.422c0-.168.084-.258.253-.258h1.079c.174 0 .296.032.374.1.084.064.152.2.216.39l1.787 7.04 1.658-7.04c.058-.196.126-.326.21-.39a.761.761 0 0 1 .387-.1h.879c.18 0 .303.032.387.1.084.064.158.2.21.39l1.677 7.127L19.137 4.6c.065-.196.136-.326.216-.39a.678.678 0 0 1 .374-.1H20.7c.168 0 .258.084.258.258 0 .052-.01.103-.026.168a1.54 1.54 0 0 1-.074.26l-2.6 7.307c-.065.196-.142.326-.232.39a.683.683 0 0 1-.426.116h-.944c-.18 0-.303-.033-.387-.1-.084-.07-.158-.2-.21-.396l-1.65-6.862-1.638 6.855c-.058.2-.126.332-.21.4-.084.064-.213.1-.393.1h-.944zm13.028.277a7.14 7.14 0 0 1-1.435-.148c-.48-.1-.855-.2-1.106-.316-.152-.074-.258-.155-.29-.232a.583.583 0 0 1-.053-.232v-.564c0-.22.084-.327.242-.327a.595.595 0 0 1 .19.032c.064.02.158.065.27.107a5.88 5.88 0 0 0 1.198.38c.435.088.855.129 1.286.129.68 0 1.21-.12 1.58-.358.37-.238.56-.587.56-1.036a1.12 1.12 0 0 0-.305-.8c-.2-.22-.58-.413-1.13-.593l-1.62-.506c-.816-.258-1.418-.64-1.793-1.145a2.724 2.724 0 0 1-.554-1.645c0-.474.103-.893.31-1.258.206-.364.483-.68.83-.935A3.66 3.66 0 0 1 20.63 5c.44-.1.912-.148 1.416-.148.252 0 .512.016.762.052.258.033.49.084.723.142.222.064.43.129.622.2.19.074.337.148.43.222a.93.93 0 0 1 .232.21.475.475 0 0 1 .065.26v.522c0 .22-.084.332-.242.332a1.093 1.093 0 0 1-.397-.129 4.776 4.776 0 0 0-2.01-.39c-.618 0-1.107.097-1.454.3-.348.2-.525.506-.525.942 0 .316.11.587.338.806.226.22.642.44 1.24.635l1.588.506c.806.258 1.39.618 1.74 1.08.348.461.519.99.519 1.574 0 .487-.1.932-.303 1.326-.21.394-.49.739-.855 1.023a3.8 3.8 0 0 1-1.293.664 5.37 5.37 0 0 1-1.651.245z" fill="#252F3E"/>
  <path d="M22.44 18.252c-2.856 2.11-6.996 3.232-10.564 3.232-4.996 0-9.496-1.848-12.9-4.926-.268-.242-.026-.574.294-.387 3.674 2.138 8.222 3.426 12.92 3.426 3.168 0 6.655-.658 9.865-2.016.484-.206.89.319.384.67z" fill="#FF9900"/>
  <path d="M23.548 16.978c-.364-.468-2.413-.222-3.332-.112-.28.032-.322-.21-.07-.39 1.632-1.148 4.31-.816 4.622-.432.31.39-.084 3.09-1.613 4.38-.235.2-.46.094-.354-.168.342-.858 1.112-2.81.748-3.278z" fill="#FF9900"/>
</svg>
