<svg viewBox="0 0 24 24" xmlns="http://www.w3.org/2000/svg">
  <path d="M8.58 3h5.21L8.02 20.42a.73.73 0 0 1-.69.5H2.78a.73.73 0 0 1-.69-.97L7.89 3.5a.73.73 0 0 1 .69-.5z" fill="#0078D4"/>
  <path d="M16.78 14.58H8.35a.33.33 0 0 0-.22.58l5.44 5.08c.13.12.31.19.49.19h4.86l-2.14-5.85z" fill="#0078D4" fill-opacity=".7"/>
  <path d="M8.58 3a.72.72 0 0 0-.69.52L2.1 19.94a.73.73 0 0 0 .69.98h4.62c.29-.04.54-.23.64-.5l1.06-3.1 3.74 3.48c.14.11.31.17.49.17h4.83l-2.12-5.87-6.73.01L13.82 3H8.58z" fill="#0078D4"/>
  <path d="M16.35 3.5a.73.73 0 0 0-.69-.5H8.66c.33 0 .62.21.72.5l5.78 16.45a.73.73 0 0 1-.69.97h6.99a.73.73 0 0 0 .69-.97L16.35 3.5z" fill="#0078D4" fill-opacity=".7"/>
</svg>
