<svg viewBox="0 0 24 24" xmlns="http://www.w3.org/2000/svg">
  <path d="M16.51 15.86l.35-1.22c.09-.31.05-.6-.12-.83-.16-.22-.42-.35-.72-.37l-8.37-.11a.17.17 0 0 1-.14-.08.18.18 0 0 1-.01-.16c.03-.08.1-.14.19-.15l8.45-.11c1.04-.05 2.17-.89 2.56-1.9l.5-1.28a.35.35 0 0 0 .02-.18C18.78 6.2 15.93 3.5 12.43 3.5c-3.04 0-5.63 1.95-6.58 4.67-.6-.44-1.35-.67-2.16-.57-1.38.16-2.5 1.29-2.63 2.68a3.04 3.04 0 0 0 .11 1.09C.49 11.46 0 12.2 0 13.04c0 .25.03.49.08.72.03.14.16.24.31.24h15.84c.09 0 .18-.06.21-.14l.07-.01z" fill="#F6821F"/>
  <path d="M19.35 11.06l-.08.01a.16.16 0 0 0-.14.12l-.23.79c-.09.31-.05.6.12.83.16.22.42.35.72.37l1.8.11c.08.01.15.05.19.15.03.06.04.12.01.16a.17.17 0 0 1-.14.08l-1.87.11c-1.05.06-2.18.9-2.56 1.91l-.14.36c-.04.09.02.18.13.18h6.56c.08 0 .15-.05.17-.12.14-.51.21-1.05.21-1.61 0-3.15-2.56-5.7-5.7-5.7-.3 0-.59.02-.88.06l.03-.01z" fill="#FBAD41"/>
</svg>
