<svg viewBox="0 0 24 24" xmlns="http://www.w3.org/2000/svg">
  <path d="M12.04 2C6.5 2 2 6.5 2 12.04c0 4.58 3.07 8.44 7.26 9.62v-3.4c-2.6-.62-4.54-2.96-4.54-5.76 0-3.27 2.68-5.92 5.98-5.86 2.94.06 5.43 2.28 5.78 5.2.2 1.62-.25 3.16-1.2 4.35a5.86 5.86 0 0 1-3.48 2.18v3.43A10.04 10.04 0 0 0 22.08 12.04C22.08 6.5 17.58 2 12.04 2z" fill="#0080FF"/>
  <path d="M12.04 17.37H8.63v3.41h3.41v-3.41z" fill="#0080FF"/>
  <path d="M8.63 20.78H5.88v2.75h2.75v-2.75z" fill="#0080FF"/>
  <path d="M5.88 20.78H3.73v2.05h2.15v-2.05z" fill="#0080FF"/>
</svg>
