<svg viewBox="0 0 24 24" xmlns="http://www.w3.org/2000/svg">
  <path d="M4.53 19.41L6.03 2.85c.04-.44.58-.63.86-.3l1.69 2.03 1.52 2.94L4.53 19.41z" fill="#FFA000"/>
  <path d="M12.37 9.09l1.74-3.36c.21-.4.77-.4.97 0l5.39 10.38-8.1-7.02z" fill="#F57C00"/>
  <path d="M4.53 19.41L4.65 19.3l5.84-12.1L8.58 4.58 4.53 19.41z" fill="#FFCA28"/>
  <path d="M4.53 19.41l.12-.11 7.72-10.21 1.74-3.36c.21-.4.77-.4.97 0l5.39 10.38.5.96-1.44.86L12 22l-7.47-2.59z" fill="#FFA000"/>
  <path d="M12 22l8.03-4.87.5-.96-8.1-7.08-7.84 10.32L12 22z" fill="#F57C00"/>
  <path d="M20.03 17.13L14.68 7.1c-.21-.4-.77-.4-.97 0l-1.74 3.36-5.84 10.1-.02.01L12 22l8.53-4.01-.5-.86z" fill="#FFCA28"/>
</svg>
