<svg viewBox="0 0 24 24" xmlns="http://www.w3.org/2000/svg">
  <path d="M12 2C6.477 2 2 6.477 2 12s4.477 10 10 10 10-4.477 10-10S17.523 2 12 2zm4.905 14.672l-1.386-1.386a.482.482 0 0 0-.682 0l-1.38 1.38a.482.482 0 0 1-.682 0L11.39 15.28a.482.482 0 0 0-.682 0l-1.38 1.38a.482.482 0 0 1-.682 0L7.095 15.11a.482.482 0 0 1 0-.682l1.38-1.38a.482.482 0 0 0 0-.682l-1.386-1.386a.482.482 0 0 1 0-.682l1.386-1.386a.482.482 0 0 0 0-.682L7.095 6.843a.482.482 0 0 1 0-.682l.682-.682a.482.482 0 0 1 .682 0L9.84 6.86a.482.482 0 0 0 .682 0l1.386-1.386a.482.482 0 0 1 .682 0l1.38 1.38a.482.482 0 0 0 .682 0l1.386-1.386a.482.482 0 0 1 .682 0l.682.682a.482.482 0 0 1 0 .682l-1.386 1.386a.482.482 0 0 0 0 .682l1.386 1.386a.482.482 0 0 1 0 .682l-1.386 1.386a.482.482 0 0 0 0 .682l1.386 1.386a.482.482 0 0 1 0 .682l-.682.682a.482.482 0 0 1-.693-.012z" fill="#7B3BE2"/>
</svg>
