<svg viewBox="0 0 24 24" xmlns="http://www.w3.org/2000/svg">
  <path d="M17.3877 10.5603L13.5759 8.35776L16.8647 5.06894L18.1275 6.97498L17.3877 10.5603ZM12.736 7.8961L9.95048 6.28858L13.6159 4.45165L15.8837 4.71337L12.736 7.8961ZM9.02227 6.77698L5.97189 8.59688L5.43482 7.38345L8.56543 5.81295L9.02227 6.77698ZM5.27645 9.58498L4.72234 11.0519L3.51593 9.89742L4.94935 8.68399L5.27645 9.58498ZM4.60585 11.8377L4.48938 15.0464L2.85781 13.9963L3.28058 10.7305L4.60585 11.8377ZM4.57178 16.0104L5.68599 19.1361L4.6529 18.5991L3.09941 14.7373L4.57178 16.0104ZM6.19634 19.6045L8.12533 20.3873L7.39355 20.8873L5.39546 19.8883L6.19634 19.6045ZM10.0443 20.8803L12.2178 21.0268L12.1127 21.5639L9.17594 21.3002L10.0443 20.8803ZM13.1677 21.0128L16.3694 20.4028L16.9565 20.8593L13.2097 21.5639L13.1677 21.0128ZM17.2316 20.0161L19.0515 18.2662L19.6146 18.4099L17.7197 20.5864L17.2316 20.0161ZM19.6016 17.5635L20.7829 15.3L21.1951 15.0934L20.1481 18.0403L19.6016 17.5635ZM21.048 14.3969L21.4082 11.2762L22.052 10.9576L21.541 14.8974L21.048 14.3969ZM21.3732 10.3022L20.3331 7.72704L20.4847 7.0549L21.9922 10.5953L21.3732 10.3022ZM19.9429 6.76997L17.722 4.54903L17.5524 3.99492L20.3401 6.78999L19.9429 6.76997ZM16.8507 3.67684L13.2237 2.95407L12.9019 2.40698L17.1146 3.3011L16.8507 3.67684ZM12.1897 2.84057L8.74753 3.78168L8.60502 3.25563L12.7009 2.26855L12.1897 2.84057ZM7.80642 4.07273L5.40247 6.05679L4.93862 5.81295L7.72067 3.52155L7.80642 4.07273ZM18.2676 7.75509L16.7621 5.76401L17.6235 4.98617L19.4965 7.13543L18.2676 7.75509ZM18.3393 8.56282L20.0409 11.1252L21.039 10.6374L19.5335 7.54897L18.3393 8.56282ZM20.0839 12.0053L18.2046 15.5137L19.1861 17.0683L21.102 13.3959L20.9814 12.5352L20.0839 12.0053ZM17.6866 16.2244L14.8715 18.7448L16.6082 20.0669L18.7714 17.3219L17.6866 16.2244ZM13.9681 19.3169L10.5608 20.4382L8.89016 20.0249L13.1887 19.0238L13.9681 19.3169ZM5.66798 18.2803L5.40247 10.0543L4.65967 15.9291L5.66798 18.2803ZM6.37674 9.0918L12.0145 12.3355L12.0145 19.2298L6.37674 9.0918ZM12.8639 19.0588L17.2876 15.6585L12.8639 12.3355L12.8639 19.0588ZM17.7267 14.8194L18.0119 8.97226L12.521 11.8494L17.7267 14.8194ZM17.1706 8.23932L12.7009 7.3032L12.3791 11.3027L17.1706 8.23932ZM11.7577 7.24644L7.2311 6.18815L6.55135 8.46052L11.6927 11.3027L11.7577 7.24644Z" fill="#00C7B7"/>
</svg>
