<svg viewBox="0 0 24 24" xmlns="http://www.w3.org/2000/svg">
  <path d="M.113 13.634c.007.079.107.096.14.024l2.117-4.56a.086.086 0 0 0-.033-.108C1.265 8.291.501 7.372.14 6.282a.089.089 0 0 0-.1-.058C.015 6.233 0 6.255 0 6.282v7.257c0 .032.004.064.012.095h.101zm.843 3.282c.063.063.161.028.175-.06.254-1.64 1.044-3.103 2.2-4.2a.086.086 0 0 0 .005-.124L1.3 10.197a.087.087 0 0 0-.134.017c-.744 1.1-1.15 2.425-1.15 3.837 0 1.02.216 1.99.603 2.866h.338zm2.03 3.127a11.136 11.136 0 0 0 3.591 2.522.086.086 0 0 0 .112-.038l1.67-3.6a.087.087 0 0 0-.04-.112 6.455 6.455 0 0 1-3.063-3.072.087.087 0 0 0-.112-.04l-3.6 1.67a.086.086 0 0 0-.037.112c.285.626.626 1.222 1.018 1.778l.46.78zm7.288 3.85a11.29 11.29 0 0 0 1.786.102c.805 0 1.59-.087 2.348-.253a.087.087 0 0 0 .064-.11l-1.108-4.25a.087.087 0 0 0-.1-.063 6.478 6.478 0 0 1-2.516-.005.087.087 0 0 0-.102.063l-1.108 4.25a.087.087 0 0 0 .063.11l.673.156zm7.336-1.394a11.136 11.136 0 0 0 3.591-2.522c.45-.45.856-.943 1.213-1.473l.265-.306a.087.087 0 0 0-.038-.112l-3.6-1.67a.087.087 0 0 0-.112.04 6.456 6.456 0 0 1-3.063 3.072.087.087 0 0 0-.04.112l1.67 3.6a.086.086 0 0 0 .114.259zm5.248-5.622c.387-.875.603-1.845.603-2.866 0-1.412-.406-2.737-1.15-3.837a.087.087 0 0 0-.134-.017l-2.036 2.335a.086.086 0 0 0 .005.124 6.471 6.471 0 0 1 2.2 4.2c.014.088.112.123.175.06h.337zm-.463-8.595a.089.089 0 0 0-.1.058c-.362 1.09-1.125 2.009-2.197 2.708a.086.086 0 0 0-.033.108l2.117 4.56c.033.072.133.055.14-.024h.101c.008-.031.012-.063.012-.095V6.282c0-.027-.016-.05-.04-.058z" fill="#000000"/>
  <path d="M12 .893C5.865.893.893 5.865.893 12c0 .565.044 1.12.128 1.663l.034-.016L4.57 7.66a2.352 2.352 0 0 1 2.1-1.326h10.66a2.352 2.352 0 0 1 2.1 1.326l3.515 5.987.034.016c.084-.544.128-1.098.128-1.663C23.107 5.865 18.135.893 12 .893z" fill="#000000"/>
</svg>
