<svg viewBox="0 0 24 24" xmlns="http://www.w3.org/2000/svg">
  <path d="M10.31 2a8.31 8.31 0 0 0-8.3 8.34c0 .07 0 .14.005.21H5.69a4.65 4.65 0 0 1 4.62-4.88 4.65 4.65 0 0 1 4.62 4.63v1.78h3.37A8.31 8.31 0 0 0 10.31 2z" fill="#46E3B7"/>
  <path d="M14.93 13.87v3.67h3.67v-3.67h-3.67z" fill="#46E3B7"/>
  <path d="M14.93 19.35v3.15c0 .83-.67 1.5-1.5 1.5h-.67v-4.65h2.17z" fill="#46E3B7"/>
  <path d="M10.93 19.35H8.76V24h.67c.83 0 1.5-.67 1.5-1.5v-3.15z" fill="#46E3B7"/>
  <path d="M5.43 13.87H2.01v3.67h3.42v-3.67z" fill="#46E3B7"/>
  <path d="M10.18 13.87H6.93v3.67h3.25v-3.67z" fill="#46E3B7"/>
  <path d="M14.93 13.87h-3.25v3.67h3.25v-3.67z" fill="#46E3B7"/>
  <path d="M2.01 19.35v2.15c0 .83.67 1.5 1.5 1.5h.41v-3.65H2.01z" fill="#46E3B7"/>
  <path d="M5.43 19.35v4.65h3.33v-4.65H5.43z" fill="#46E3B7"/>
</svg>
