<svg xmlns="http://www.w3.org/2000/svg" viewBox="0 0 128 128" fill="none">
  <rect x="4" y="4" width="120" height="120" rx="28" fill="#0f172a"/>
  <rect x="4" y="4" width="120" height="120" rx="28" stroke="#1e293b" stroke-width="2"/>
  <path d="M94 72H40c-8.837 0-16-7.163-16-16 0-7.732 5.5-14.176 12.794-15.65C38.5 31.5 46.5 24 56 24c7.348 0 13.715 4.21 16.824 10.348C74.82 32.844 77.77 32 81 32c9.941 0 18 8.059 18 18 0 1.053-.091 2.085-.265 3.088C105.416 55.52 110 61.732 110 69c0 8.837-7.163 16-16 16z"
        fill="#1e3a5f" stroke="#3b82f6" stroke-width="2"/>
  <rect x="36" y="48" width="14" height="14" rx="3" fill="#3b82f6"/>
  <rect x="57" y="48" width="14" height="14" rx="3" fill="#22c55e"/>
  <rect x="78" y="48" width="14" height="14" rx="3" fill="#3b82f6"/>
  <rect x="46" y="68" width="14" height="14" rx="3" fill="#f59e0b"/>
  <rect x="68" y="68" width="14" height="14" rx="3" fill="#3b82f6"/>
  <line x1="43" y1="62" x2="53" y2="68" stroke="#64748b" stroke-width="1.5"/>
  <line x1="64" y1="62" x2="53" y2="68" stroke="#64748b" stroke-width="1.5"/>
  <line x1="64" y1="62" x2="75" y2="68" stroke="#64748b" stroke-width="1.5"/>
  <line x1="85" y1="62" x2="75" y2="68" stroke="#64748b" stroke-width="1.5"/>
  <g transform="translate(28, 96)">
    <polygon points="12,6 6,16 18,16" fill="#ffffff"/>
    <path d="M42 8l6 4v8l-6 4-6-4v-8z" fill="#f38020"/>
    <circle cx="72" cy="12" r="6" fill="#a855f7"/>
  </g>
</svg>
